# xmcd CD database file
#
# Track frame offsets:
#	150
#	21479
#	37868
#	63823
#	89303
#	107979
#	119046
#	143977
#	163447
#	179430
#	198938
#	206261
#
# Disc length: 2804 seconds
#
# Revision: 0
# Processed by: cddbd v1.5.1PL0 Copyright (c) Steve Scherf et al.
# Submitted via: CDex 1.51
#
DISCID=ad0af20c
DTITLE=Mijke Loeven Band - Two
DYEAR=1900
DGENRE=Jazz
TTITLE0=The Guard
TTITLE1=I Feel Nothing
TTITLE2=She
TTITLE3=Solid Ground
TTITLE4=Eyes
TTITLE5=Honey, Can I Put On Your Clothes?
TTITLE6=Lay Your Head Down
TTITLE7=If Something Ever Happens
TTITLE8=Misgivings
TTITLE9=Good Things
TTITLE10=Home
TTITLE11=SecretTrack
EXTD=
EXTT0=
EXTT1=
EXTT2=
EXTT3=
EXTT4=
EXTT5=
EXTT6=
EXTT7=
EXTT8=
EXTT9=
EXTT10=
EXTT11=
PLAYORDER=
